<?xml version="1.0" encoding="utf-8"?>
<!-- Svg Vector Icons : http://www.onlinewebfonts.com/icon -->
<!DOCTYPE svg PUBLIC "-//W3C//DTD SVG 1.1//EN" "http://www.w3.org/Graphics/SVG/1.1/DTD/svg11.dtd">
<svg version="1.1" xmlns="http://www.w3.org/2000/svg" xmlns:xlink="http://www.w3.org/1999/xlink" x="0px" y="0px" viewBox="0 0 1000 1000" enable-background="new 0 0 1000 1000" xml:space="preserve">
<metadata> Svg Vector Icons : http://www.onlinewebfonts.com/icon </metadata>
<g><g transform="translate(0.000000,511.000000) scale(0.100000,-0.100000)"><path d="M4937.1,4991.8c-639.4-50.2-1272.9-241.5-1723-523.5c-819-511.9-1327-1385-1417.8-2447.4c-15.5-162.3-15.5-282-1.9-384.4c36.7-274.3,467.5-4238,461.7-4243.8c-3.9-1.9-295.5-231.8-647.1-510c-620-488.7-643.2-509.9-643.2-571.8c0-79.2,69.5-137.1,139.1-117.8c25.1,5.8,301.3,214.4,614.3,463.6l569.8,452l13.5-98.5c7.7-56,44.4-380.5,81.1-722.4c54.1-488.7,75.3-641.3,110.1-718.6c48.3-115.9,193.2-256.9,322.6-316.8l90.8-42.5h2501.5h2501.4l90.8,42.5c197,90.8,349.6,291.7,372.8,492.6c5.8,46.4,154.5,1396.6,328.4,2999.8c175.8,1605.2,324.5,2939.9,330.3,2967c5.8,29,0,158.4-11.6,287.8c-52.2,606.5-239.5,1162.8-546.7,1624.5c-142.9,214.4-446.2,537-652.9,693.5C7123.7,4843,6103.7,5080.6,4937.1,4991.8z M5922.2,4740.7c297.5-29,654.8-102.4,925.3-193.2c1077.9-359.3,1771.3-1245.9,1918.1-2451.2c9.6-79.2,15.4-148.7,11.6-152.6c-3.8-3.9-96.6,5.8-204.7,23.2c-488.7,77.3-1429.4,110.1-3164,110.1c-1748.1,0-2617.4-30.9-3154.4-110.1c-114-15.4-210.6-27-214.4-23.2c-13.5,13.5,42.5,396,83.1,560.2c125.6,531.2,392.1,1021.8,745.6,1377.3c490.6,492.6,1205.3,790,2086.2,867.3C5137.9,4763.8,5727.1,4760,5922.2,4740.7z M6613.7,1825.8c764.9-17.4,1614.8-54.1,1632.2-69.5c11.6-9.7-46.4-336.1-96.6-550.5c-58-249.2-162.3-384.4-297.5-384.4c-29,0-106.3,30.9-171.9,67.6c-260.8,144.9-455.9,129.4-639.4-56c-187.4-187.4-309.1-506.1-417.2-1087.5c-59.9-324.5-83.1-409.5-150.7-542.8c-69.5-137.2-139.1-146.8-264.6-38.6c-125.5,112-152.6,206.7-191.2,681.9c-42.5,521.5-220.2,958.1-498.4,1220.8c-143,135.2-245.3,183.5-411.4,195.1c-241.5,15.5-469.4-100.4-625.9-320.6c-152.6-214.4-343.8-384.4-502.2-450.1c-110.1-44.4-282-32.8-415.3,30.9c-164.2,77.3-430.8,347.7-602.7,612.3c-131.3,200.9-347.7,606.5-332.2,622c15.4,17.4,820.9,54.1,1446.8,67.6C5033.6,1845.1,5709.7,1845.1,6613.7,1825.8z M2487.7,1474.3c193.2-394.1,376.7-662.5,610.4-896.3c156.5-156.5,226-208.6,347.7-270.4c150.7-73.4,160.3-75.3,359.3-75.3c193.2,0,210.5,3.9,336.1,65.7c154.5,75.3,378.6,280.1,508,461.7c148.7,206.7,334.2,301.3,502.2,253c166.1-46.4,367-278.2,484.8-562.1c77.3-185.4,114-370.9,148.7-755.2c32.8-357.4,56-453.9,141-577.6c170-247.2,399.9-332.2,593-220.2c156.4,92.7,251.1,303.3,328.4,722.4c123.6,662.6,237.6,962,413.4,1079.8c92.7,61.8,148.7,56,322.6-36.7c131.4-69.5,170-81.1,268.5-81.1c137.1,0,226,36.7,328.4,139.1c117.8,115.9,179.6,274.3,256.9,662.6l69.6,349.6l117.8-13.5c63.8-5.8,123.7-21.3,133.3-30.9c11.6-9.7-21.3-394.1-90.8-1025.7c-61.8-556.3-206.7-1879.5-322.6-2941.9s-216.3-1960.6-222.1-1995.4c-13.5-79.2-108.2-187.4-204.7-237.6c-71.5-34.8-137.1-36.7-2509.2-36.7c-2379.8,0-2437.7,0-2509.2,38.6c-83.1,42.5-158.4,121.7-191.2,204.8c-19.3,52.2-177.7,1423.6-177.7,1547.2c0,52.1,48.3,94.6,494.5,448.1l494.5,392.1l52.1-57.9c61.8-71.5,148.7-100.4,289.7-100.4c142.9,1.9,235.7,44.4,448.1,212.5c114,90.8,330.3,222.1,631.6,386.3c496.4,270.4,517.7,287.8,511.9,432.7c-9.7,268.5-425,838.3-712.8,979.3c-199,98.5-197,98.5-608.5-341.9c-204.8-220.2-432.7-442.3-546.6-535c-216.3-171.9-226-183.5-285.9-293.6c-29-56-42.5-114-42.5-204.8c-1.9-110.1,5.8-137.1,54.1-206.7c30.9-46.4,52.2-85,48.3-88.9c-598.8-475.2-855.7-668.3-865.4-651c-7.7,11.6-36.7,245.3-67.6,517.7c-29,274.3-129.4,1187.9-222.1,2030.1c-166.1,1510.5-168.1,1531.8-127.5,1541.4c21.2,3.9,90.8,15.4,154.5,25.1c63.7,9.7,117.8,17.4,119.8,19.3C2350.6,1746.6,2414.3,1624.9,2487.7,1474.3z M4786.4-403.3c133.3-125.5,253.1-280.1,338-438.5c117.8-216.3,144.9-177.7-303.3-421.1c-216.4-117.8-399.9-214.4-405.6-214.4c-5.8,0-106.2-73.4-220.2-164.2c-341.9-264.6-378.6-266.6-569.8-13.5c-191.2,251.1-181.6,293.6,117.8,525.4c108.2,85,311,280.1,519.6,504.2C4647.3-212,4604.8-231.4,4786.4-403.3z"/><path d="M5485.6-1452.1c-75.3-71.5-258.8-367-309.1-500.3c-48.3-129.4-48.3-206.7-1.9-307.1c115.9-256.9,461.6-287.8,620-54.1c42.5,61.8,48.3,90.8,46.4,226c-3.9,276.2-162.3,687.7-266.6,687.7C5557.1-1400,5518.5-1423.2,5485.6-1452.1z M5584.1-1971.8c27.1-114,30.9-158.4,13.5-189.3c-67.6-127.5-226-69.5-202.8,75.3c11.6,71.5,125.5,289.7,142.9,272.4C5543.6-1819.2,5564.8-1890.6,5584.1-1971.8z"/></g></g>
</svg>